# Hollow cylinder ring  R_out=50mm R_in=30mm h=40mm
# 256 verts  256 tris
v 0.050000 0.000000 0.000000
v 0.050000 0.000000 0.040000
v 0.049039 0.009755 0.000000
v 0.049039 0.009755 0.040000
v 0.046194 0.019134 0.000000
v 0.046194 0.019134 0.040000
v 0.041573 0.027779 0.000000
v 0.041573 0.027779 0.040000
v 0.035355 0.035355 0.000000
v 0.035355 0.035355 0.040000
v 0.027779 0.041573 0.000000
v 0.027779 0.041573 0.040000
v 0.019134 0.046194 0.000000
v 0.019134 0.046194 0.040000
v 0.009755 0.049039 0.000000
v 0.009755 0.049039 0.040000
v 0.000000 0.050000 0.000000
v 0.000000 0.050000 0.040000
v -0.009755 0.049039 0.000000
v -0.009755 0.049039 0.040000
v -0.019134 0.046194 0.000000
v -0.019134 0.046194 0.040000
v -0.027779 0.041573 0.000000
v -0.027779 0.041573 0.040000
v -0.035355 0.035355 0.000000
v -0.035355 0.035355 0.040000
v -0.041573 0.027779 0.000000
v -0.041573 0.027779 0.040000
v -0.046194 0.019134 0.000000
v -0.046194 0.019134 0.040000
v -0.049039 0.009755 0.000000
v -0.049039 0.009755 0.040000
v -0.050000 0.000000 0.000000
v -0.050000 0.000000 0.040000
v -0.049039 -0.009755 0.000000
v -0.049039 -0.009755 0.040000
v -0.046194 -0.019134 0.000000
v -0.046194 -0.019134 0.040000
v -0.041573 -0.027779 0.000000
v -0.041573 -0.027779 0.040000
v -0.035355 -0.035355 0.000000
v -0.035355 -0.035355 0.040000
v -0.027779 -0.041573 0.000000
v -0.027779 -0.041573 0.040000
v -0.019134 -0.046194 0.000000
v -0.019134 -0.046194 0.040000
v -0.009755 -0.049039 0.000000
v -0.009755 -0.049039 0.040000
v -0.000000 -0.050000 0.000000
v -0.000000 -0.050000 0.040000
v 0.009755 -0.049039 0.000000
v 0.009755 -0.049039 0.040000
v 0.019134 -0.046194 0.000000
v 0.019134 -0.046194 0.040000
v 0.027779 -0.041573 0.000000
v 0.027779 -0.041573 0.040000
v 0.035355 -0.035355 0.000000
v 0.035355 -0.035355 0.040000
v 0.041573 -0.027779 0.000000
v 0.041573 -0.027779 0.040000
v 0.046194 -0.019134 0.000000
v 0.046194 -0.019134 0.040000
v 0.049039 -0.009755 0.000000
v 0.049039 -0.009755 0.040000
v 0.030000 0.000000 0.000000
v 0.030000 0.000000 0.040000
v 0.029424 0.005853 0.000000
v 0.029424 0.005853 0.040000
v 0.027716 0.011481 0.000000
v 0.027716 0.011481 0.040000
v 0.024944 0.016667 0.000000
v 0.024944 0.016667 0.040000
v 0.021213 0.021213 0.000000
v 0.021213 0.021213 0.040000
v 0.016667 0.024944 0.000000
v 0.016667 0.024944 0.040000
v 0.011481 0.027716 0.000000
v 0.011481 0.027716 0.040000
v 0.005853 0.029424 0.000000
v 0.005853 0.029424 0.040000
v 0.000000 0.030000 0.000000
v 0.000000 0.030000 0.040000
v -0.005853 0.029424 0.000000
v -0.005853 0.029424 0.040000
v -0.011481 0.027716 0.000000
v -0.011481 0.027716 0.040000
v -0.016667 0.024944 0.000000
v -0.016667 0.024944 0.040000
v -0.021213 0.021213 0.000000
v -0.021213 0.021213 0.040000
v -0.024944 0.016667 0.000000
v -0.024944 0.016667 0.040000
v -0.027716 0.011481 0.000000
v -0.027716 0.011481 0.040000
v -0.029424 0.005853 0.000000
v -0.029424 0.005853 0.040000
v -0.030000 0.000000 0.000000
v -0.030000 0.000000 0.040000
v -0.029424 -0.005853 0.000000
v -0.029424 -0.005853 0.040000
v -0.027716 -0.011481 0.000000
v -0.027716 -0.011481 0.040000
v -0.024944 -0.016667 0.000000
v -0.024944 -0.016667 0.040000
v -0.021213 -0.021213 0.000000
v -0.021213 -0.021213 0.040000
v -0.016667 -0.024944 0.000000
v -0.016667 -0.024944 0.040000
v -0.011481 -0.027716 0.000000
v -0.011481 -0.027716 0.040000
v -0.005853 -0.029424 0.000000
v -0.005853 -0.029424 0.040000
v -0.000000 -0.030000 0.000000
v -0.000000 -0.030000 0.040000
v 0.005853 -0.029424 0.000000
v 0.005853 -0.029424 0.040000
v 0.011481 -0.027716 0.000000
v 0.011481 -0.027716 0.040000
v 0.016667 -0.024944 0.000000
v 0.016667 -0.024944 0.040000
v 0.021213 -0.021213 0.000000
v 0.021213 -0.021213 0.040000
v 0.024944 -0.016667 0.000000
v 0.024944 -0.016667 0.040000
v 0.027716 -0.011481 0.000000
v 0.027716 -0.011481 0.040000
v 0.029424 -0.005853 0.000000
v 0.029424 -0.005853 0.040000
v 0.050000 0.000000 0.000000
v 0.030000 0.000000 0.000000
v 0.049039 0.009755 0.000000
v 0.029424 0.005853 0.000000
v 0.046194 0.019134 0.000000
v 0.027716 0.011481 0.000000
v 0.041573 0.027779 0.000000
v 0.024944 0.016667 0.000000
v 0.035355 0.035355 0.000000
v 0.021213 0.021213 0.000000
v 0.027779 0.041573 0.000000
v 0.016667 0.024944 0.000000
v 0.019134 0.046194 0.000000
v 0.011481 0.027716 0.000000
v 0.009755 0.049039 0.000000
v 0.005853 0.029424 0.000000
v 0.000000 0.050000 0.000000
v 0.000000 0.030000 0.000000
v -0.009755 0.049039 0.000000
v -0.005853 0.029424 0.000000
v -0.019134 0.046194 0.000000
v -0.011481 0.027716 0.000000
v -0.027779 0.041573 0.000000
v -0.016667 0.024944 0.000000
v -0.035355 0.035355 0.000000
v -0.021213 0.021213 0.000000
v -0.041573 0.027779 0.000000
v -0.024944 0.016667 0.000000
v -0.046194 0.019134 0.000000
v -0.027716 0.011481 0.000000
v -0.049039 0.009755 0.000000
v -0.029424 0.005853 0.000000
v -0.050000 0.000000 0.000000
v -0.030000 0.000000 0.000000
v -0.049039 -0.009755 0.000000
v -0.029424 -0.005853 0.000000
v -0.046194 -0.019134 0.000000
v -0.027716 -0.011481 0.000000
v -0.041573 -0.027779 0.000000
v -0.024944 -0.016667 0.000000
v -0.035355 -0.035355 0.000000
v -0.021213 -0.021213 0.000000
v -0.027779 -0.041573 0.000000
v -0.016667 -0.024944 0.000000
v -0.019134 -0.046194 0.000000
v -0.011481 -0.027716 0.000000
v -0.009755 -0.049039 0.000000
v -0.005853 -0.029424 0.000000
v -0.000000 -0.050000 0.000000
v -0.000000 -0.030000 0.000000
v 0.009755 -0.049039 0.000000
v 0.005853 -0.029424 0.000000
v 0.019134 -0.046194 0.000000
v 0.011481 -0.027716 0.000000
v 0.027779 -0.041573 0.000000
v 0.016667 -0.024944 0.000000
v 0.035355 -0.035355 0.000000
v 0.021213 -0.021213 0.000000
v 0.041573 -0.027779 0.000000
v 0.024944 -0.016667 0.000000
v 0.046194 -0.019134 0.000000
v 0.027716 -0.011481 0.000000
v 0.049039 -0.009755 0.000000
v 0.029424 -0.005853 0.000000
v 0.050000 0.000000 0.040000
v 0.030000 0.000000 0.040000
v 0.049039 0.009755 0.040000
v 0.029424 0.005853 0.040000
v 0.046194 0.019134 0.040000
v 0.027716 0.011481 0.040000
v 0.041573 0.027779 0.040000
v 0.024944 0.016667 0.040000
v 0.035355 0.035355 0.040000
v 0.021213 0.021213 0.040000
v 0.027779 0.041573 0.040000
v 0.016667 0.024944 0.040000
v 0.019134 0.046194 0.040000
v 0.011481 0.027716 0.040000
v 0.009755 0.049039 0.040000
v 0.005853 0.029424 0.040000
v 0.000000 0.050000 0.040000
v 0.000000 0.030000 0.040000
v -0.009755 0.049039 0.040000
v -0.005853 0.029424 0.040000
v -0.019134 0.046194 0.040000
v -0.011481 0.027716 0.040000
v -0.027779 0.041573 0.040000
v -0.016667 0.024944 0.040000
v -0.035355 0.035355 0.040000
v -0.021213 0.021213 0.040000
v -0.041573 0.027779 0.040000
v -0.024944 0.016667 0.040000
v -0.046194 0.019134 0.040000
v -0.027716 0.011481 0.040000
v -0.049039 0.009755 0.040000
v -0.029424 0.005853 0.040000
v -0.050000 0.000000 0.040000
v -0.030000 0.000000 0.040000
v -0.049039 -0.009755 0.040000
v -0.029424 -0.005853 0.040000
v -0.046194 -0.019134 0.040000
v -0.027716 -0.011481 0.040000
v -0.041573 -0.027779 0.040000
v -0.024944 -0.016667 0.040000
v -0.035355 -0.035355 0.040000
v -0.021213 -0.021213 0.040000
v -0.027779 -0.041573 0.040000
v -0.016667 -0.024944 0.040000
v -0.019134 -0.046194 0.040000
v -0.011481 -0.027716 0.040000
v -0.009755 -0.049039 0.040000
v -0.005853 -0.029424 0.040000
v -0.000000 -0.050000 0.040000
v -0.000000 -0.030000 0.040000
v 0.009755 -0.049039 0.040000
v 0.005853 -0.029424 0.040000
v 0.019134 -0.046194 0.040000
v 0.011481 -0.027716 0.040000
v 0.027779 -0.041573 0.040000
v 0.016667 -0.024944 0.040000
v 0.035355 -0.035355 0.040000
v 0.021213 -0.021213 0.040000
v 0.041573 -0.027779 0.040000
v 0.024944 -0.016667 0.040000
v 0.046194 -0.019134 0.040000
v 0.027716 -0.011481 0.040000
v 0.049039 -0.009755 0.040000
v 0.029424 -0.005853 0.040000
vn 1.000000 0.000000 0.000000
vn 1.000000 0.000000 0.000000
vn 0.980785 0.195090 0.000000
vn 0.980785 0.195090 0.000000
vn 0.923880 0.382683 0.000000
vn 0.923880 0.382683 0.000000
vn 0.831470 0.555570 0.000000
vn 0.831470 0.555570 0.000000
vn 0.707107 0.707107 0.000000
vn 0.707107 0.707107 0.000000
vn 0.555570 0.831470 0.000000
vn 0.555570 0.831470 0.000000
vn 0.382683 0.923880 0.000000
vn 0.382683 0.923880 0.000000
vn 0.195090 0.980785 0.000000
vn 0.195090 0.980785 0.000000
vn 0.000000 1.000000 0.000000
vn 0.000000 1.000000 0.000000
vn -0.195090 0.980785 0.000000
vn -0.195090 0.980785 0.000000
vn -0.382683 0.923880 0.000000
vn -0.382683 0.923880 0.000000
vn -0.555570 0.831470 0.000000
vn -0.555570 0.831470 0.000000
vn -0.707107 0.707107 0.000000
vn -0.707107 0.707107 0.000000
vn -0.831470 0.555570 0.000000
vn -0.831470 0.555570 0.000000
vn -0.923880 0.382683 0.000000
vn -0.923880 0.382683 0.000000
vn -0.980785 0.195090 0.000000
vn -0.980785 0.195090 0.000000
vn -1.000000 0.000000 0.000000
vn -1.000000 0.000000 0.000000
vn -0.980785 -0.195090 0.000000
vn -0.980785 -0.195090 0.000000
vn -0.923880 -0.382683 0.000000
vn -0.923880 -0.382683 0.000000
vn -0.831470 -0.555570 0.000000
vn -0.831470 -0.555570 0.000000
vn -0.707107 -0.707107 0.000000
vn -0.707107 -0.707107 0.000000
vn -0.555570 -0.831470 0.000000
vn -0.555570 -0.831470 0.000000
vn -0.382683 -0.923880 0.000000
vn -0.382683 -0.923880 0.000000
vn -0.195090 -0.980785 0.000000
vn -0.195090 -0.980785 0.000000
vn -0.000000 -1.000000 0.000000
vn -0.000000 -1.000000 0.000000
vn 0.195090 -0.980785 0.000000
vn 0.195090 -0.980785 0.000000
vn 0.382683 -0.923880 0.000000
vn 0.382683 -0.923880 0.000000
vn 0.555570 -0.831470 0.000000
vn 0.555570 -0.831470 0.000000
vn 0.707107 -0.707107 0.000000
vn 0.707107 -0.707107 0.000000
vn 0.831470 -0.555570 0.000000
vn 0.831470 -0.555570 0.000000
vn 0.923880 -0.382683 0.000000
vn 0.923880 -0.382683 0.000000
vn 0.980785 -0.195090 0.000000
vn 0.980785 -0.195090 0.000000
vn -1.000000 -0.000000 0.000000
vn -1.000000 -0.000000 0.000000
vn -0.980785 -0.195090 0.000000
vn -0.980785 -0.195090 0.000000
vn -0.923880 -0.382683 0.000000
vn -0.923880 -0.382683 0.000000
vn -0.831470 -0.555570 0.000000
vn -0.831470 -0.555570 0.000000
vn -0.707107 -0.707107 0.000000
vn -0.707107 -0.707107 0.000000
vn -0.555570 -0.831470 0.000000
vn -0.555570 -0.831470 0.000000
vn -0.382683 -0.923880 0.000000
vn -0.382683 -0.923880 0.000000
vn -0.195090 -0.980785 0.000000
vn -0.195090 -0.980785 0.000000
vn -0.000000 -1.000000 0.000000
vn -0.000000 -1.000000 0.000000
vn 0.195090 -0.980785 0.000000
vn 0.195090 -0.980785 0.000000
vn 0.382683 -0.923880 0.000000
vn 0.382683 -0.923880 0.000000
vn 0.555570 -0.831470 0.000000
vn 0.555570 -0.831470 0.000000
vn 0.707107 -0.707107 0.000000
vn 0.707107 -0.707107 0.000000
vn 0.831470 -0.555570 0.000000
vn 0.831470 -0.555570 0.000000
vn 0.923880 -0.382683 0.000000
vn 0.923880 -0.382683 0.000000
vn 0.980785 -0.195090 0.000000
vn 0.980785 -0.195090 0.000000
vn 1.000000 -0.000000 0.000000
vn 1.000000 -0.000000 0.000000
vn 0.980785 0.195090 0.000000
vn 0.980785 0.195090 0.000000
vn 0.923880 0.382683 0.000000
vn 0.923880 0.382683 0.000000
vn 0.831470 0.555570 0.000000
vn 0.831470 0.555570 0.000000
vn 0.707107 0.707107 0.000000
vn 0.707107 0.707107 0.000000
vn 0.555570 0.831470 0.000000
vn 0.555570 0.831470 0.000000
vn 0.382683 0.923880 0.000000
vn 0.382683 0.923880 0.000000
vn 0.195090 0.980785 0.000000
vn 0.195090 0.980785 0.000000
vn 0.000000 1.000000 0.000000
vn 0.000000 1.000000 0.000000
vn -0.195090 0.980785 0.000000
vn -0.195090 0.980785 0.000000
vn -0.382683 0.923880 0.000000
vn -0.382683 0.923880 0.000000
vn -0.555570 0.831470 0.000000
vn -0.555570 0.831470 0.000000
vn -0.707107 0.707107 0.000000
vn -0.707107 0.707107 0.000000
vn -0.831470 0.555570 0.000000
vn -0.831470 0.555570 0.000000
vn -0.923880 0.382683 0.000000
vn -0.923880 0.382683 0.000000
vn -0.980785 0.195090 0.000000
vn -0.980785 0.195090 0.000000
vn 0.000000 0.000000 -1.000000
vn 0.000000 0.000000 -1.000000
vn 0.000000 0.000000 -1.000000
vn 0.000000 0.000000 -1.000000
vn 0.000000 0.000000 -1.000000
vn 0.000000 0.000000 -1.000000
vn 0.000000 0.000000 -1.000000
vn 0.000000 0.000000 -1.000000
vn 0.000000 0.000000 -1.000000
vn 0.000000 0.000000 -1.000000
vn 0.000000 0.000000 -1.000000
vn 0.000000 0.000000 -1.000000
vn 0.000000 0.000000 -1.000000
vn 0.000000 0.000000 -1.000000
vn 0.000000 0.000000 -1.000000
vn 0.000000 0.000000 -1.000000
vn 0.000000 0.000000 -1.000000
vn 0.000000 0.000000 -1.000000
vn 0.000000 0.000000 -1.000000
vn 0.000000 0.000000 -1.000000
vn 0.000000 0.000000 -1.000000
vn 0.000000 0.000000 -1.000000
vn 0.000000 0.000000 -1.000000
vn 0.000000 0.000000 -1.000000
vn 0.000000 0.000000 -1.000000
vn 0.000000 0.000000 -1.000000
vn 0.000000 0.000000 -1.000000
vn 0.000000 0.000000 -1.000000
vn 0.000000 0.000000 -1.000000
vn 0.000000 0.000000 -1.000000
vn 0.000000 0.000000 -1.000000
vn 0.000000 0.000000 -1.000000
vn 0.000000 0.000000 -1.000000
vn 0.000000 0.000000 -1.000000
vn 0.000000 0.000000 -1.000000
vn 0.000000 0.000000 -1.000000
vn 0.000000 0.000000 -1.000000
vn 0.000000 0.000000 -1.000000
vn 0.000000 0.000000 -1.000000
vn 0.000000 0.000000 -1.000000
vn 0.000000 0.000000 -1.000000
vn 0.000000 0.000000 -1.000000
vn 0.000000 0.000000 -1.000000
vn 0.000000 0.000000 -1.000000
vn 0.000000 0.000000 -1.000000
vn 0.000000 0.000000 -1.000000
vn 0.000000 0.000000 -1.000000
vn 0.000000 0.000000 -1.000000
vn 0.000000 0.000000 -1.000000
vn 0.000000 0.000000 -1.000000
vn 0.000000 0.000000 -1.000000
vn 0.000000 0.000000 -1.000000
vn 0.000000 0.000000 -1.000000
vn 0.000000 0.000000 -1.000000
vn 0.000000 0.000000 -1.000000
vn 0.000000 0.000000 -1.000000
vn 0.000000 0.000000 -1.000000
vn 0.000000 0.000000 -1.000000
vn 0.000000 0.000000 -1.000000
vn 0.000000 0.000000 -1.000000
vn 0.000000 0.000000 -1.000000
vn 0.000000 0.000000 -1.000000
vn 0.000000 0.000000 -1.000000
vn 0.000000 0.000000 -1.000000
vn 0.000000 0.000000 1.000000
vn 0.000000 0.000000 1.000000
vn 0.000000 0.000000 1.000000
vn 0.000000 0.000000 1.000000
vn 0.000000 0.000000 1.000000
vn 0.000000 0.000000 1.000000
vn 0.000000 0.000000 1.000000
vn 0.000000 0.000000 1.000000
vn 0.000000 0.000000 1.000000
vn 0.000000 0.000000 1.000000
vn 0.000000 0.000000 1.000000
vn 0.000000 0.000000 1.000000
vn 0.000000 0.000000 1.000000
vn 0.000000 0.000000 1.000000
vn 0.000000 0.000000 1.000000
vn 0.000000 0.000000 1.000000
vn 0.000000 0.000000 1.000000
vn 0.000000 0.000000 1.000000
vn 0.000000 0.000000 1.000000
vn 0.000000 0.000000 1.000000
vn 0.000000 0.000000 1.000000
vn 0.000000 0.000000 1.000000
vn 0.000000 0.000000 1.000000
vn 0.000000 0.000000 1.000000
vn 0.000000 0.000000 1.000000
vn 0.000000 0.000000 1.000000
vn 0.000000 0.000000 1.000000
vn 0.000000 0.000000 1.000000
vn 0.000000 0.000000 1.000000
vn 0.000000 0.000000 1.000000
vn 0.000000 0.000000 1.000000
vn 0.000000 0.000000 1.000000
vn 0.000000 0.000000 1.000000
vn 0.000000 0.000000 1.000000
vn 0.000000 0.000000 1.000000
vn 0.000000 0.000000 1.000000
vn 0.000000 0.000000 1.000000
vn 0.000000 0.000000 1.000000
vn 0.000000 0.000000 1.000000
vn 0.000000 0.000000 1.000000
vn 0.000000 0.000000 1.000000
vn 0.000000 0.000000 1.000000
vn 0.000000 0.000000 1.000000
vn 0.000000 0.000000 1.000000
vn 0.000000 0.000000 1.000000
vn 0.000000 0.000000 1.000000
vn 0.000000 0.000000 1.000000
vn 0.000000 0.000000 1.000000
vn 0.000000 0.000000 1.000000
vn 0.000000 0.000000 1.000000
vn 0.000000 0.000000 1.000000
vn 0.000000 0.000000 1.000000
vn 0.000000 0.000000 1.000000
vn 0.000000 0.000000 1.000000
vn 0.000000 0.000000 1.000000
vn 0.000000 0.000000 1.000000
vn 0.000000 0.000000 1.000000
vn 0.000000 0.000000 1.000000
vn 0.000000 0.000000 1.000000
vn 0.000000 0.000000 1.000000
vn 0.000000 0.000000 1.000000
vn 0.000000 0.000000 1.000000
vn 0.000000 0.000000 1.000000
vn 0.000000 0.000000 1.000000
f 1//1 3//3 4//4
f 1//1 4//4 2//2
f 3//3 5//5 6//6
f 3//3 6//6 4//4
f 5//5 7//7 8//8
f 5//5 8//8 6//6
f 7//7 9//9 10//10
f 7//7 10//10 8//8
f 9//9 11//11 12//12
f 9//9 12//12 10//10
f 11//11 13//13 14//14
f 11//11 14//14 12//12
f 13//13 15//15 16//16
f 13//13 16//16 14//14
f 15//15 17//17 18//18
f 15//15 18//18 16//16
f 17//17 19//19 20//20
f 17//17 20//20 18//18
f 19//19 21//21 22//22
f 19//19 22//22 20//20
f 21//21 23//23 24//24
f 21//21 24//24 22//22
f 23//23 25//25 26//26
f 23//23 26//26 24//24
f 25//25 27//27 28//28
f 25//25 28//28 26//26
f 27//27 29//29 30//30
f 27//27 30//30 28//28
f 29//29 31//31 32//32
f 29//29 32//32 30//30
f 31//31 33//33 34//34
f 31//31 34//34 32//32
f 33//33 35//35 36//36
f 33//33 36//36 34//34
f 35//35 37//37 38//38
f 35//35 38//38 36//36
f 37//37 39//39 40//40
f 37//37 40//40 38//38
f 39//39 41//41 42//42
f 39//39 42//42 40//40
f 41//41 43//43 44//44
f 41//41 44//44 42//42
f 43//43 45//45 46//46
f 43//43 46//46 44//44
f 45//45 47//47 48//48
f 45//45 48//48 46//46
f 47//47 49//49 50//50
f 47//47 50//50 48//48
f 49//49 51//51 52//52
f 49//49 52//52 50//50
f 51//51 53//53 54//54
f 51//51 54//54 52//52
f 53//53 55//55 56//56
f 53//53 56//56 54//54
f 55//55 57//57 58//58
f 55//55 58//58 56//56
f 57//57 59//59 60//60
f 57//57 60//60 58//58
f 59//59 61//61 62//62
f 59//59 62//62 60//60
f 61//61 63//63 64//64
f 61//61 64//64 62//62
f 63//63 1//1 2//2
f 63//63 2//2 64//64
f 65//65 66//66 68//68
f 65//65 68//68 67//67
f 67//67 68//68 70//70
f 67//67 70//70 69//69
f 69//69 70//70 72//72
f 69//69 72//72 71//71
f 71//71 72//72 74//74
f 71//71 74//74 73//73
f 73//73 74//74 76//76
f 73//73 76//76 75//75
f 75//75 76//76 78//78
f 75//75 78//78 77//77
f 77//77 78//78 80//80
f 77//77 80//80 79//79
f 79//79 80//80 82//82
f 79//79 82//82 81//81
f 81//81 82//82 84//84
f 81//81 84//84 83//83
f 83//83 84//84 86//86
f 83//83 86//86 85//85
f 85//85 86//86 88//88
f 85//85 88//88 87//87
f 87//87 88//88 90//90
f 87//87 90//90 89//89
f 89//89 90//90 92//92
f 89//89 92//92 91//91
f 91//91 92//92 94//94
f 91//91 94//94 93//93
f 93//93 94//94 96//96
f 93//93 96//96 95//95
f 95//95 96//96 98//98
f 95//95 98//98 97//97
f 97//97 98//98 100//100
f 97//97 100//100 99//99
f 99//99 100//100 102//102
f 99//99 102//102 101//101
f 101//101 102//102 104//104
f 101//101 104//104 103//103
f 103//103 104//104 106//106
f 103//103 106//106 105//105
f 105//105 106//106 108//108
f 105//105 108//108 107//107
f 107//107 108//108 110//110
f 107//107 110//110 109//109
f 109//109 110//110 112//112
f 109//109 112//112 111//111
f 111//111 112//112 114//114
f 111//111 114//114 113//113
f 113//113 114//114 116//116
f 113//113 116//116 115//115
f 115//115 116//116 118//118
f 115//115 118//118 117//117
f 117//117 118//118 120//120
f 117//117 120//120 119//119
f 119//119 120//120 122//122
f 119//119 122//122 121//121
f 121//121 122//122 124//124
f 121//121 124//124 123//123
f 123//123 124//124 126//126
f 123//123 126//126 125//125
f 125//125 126//126 128//128
f 125//125 128//128 127//127
f 127//127 128//128 66//66
f 127//127 66//66 65//65
f 129//129 130//130 132//132
f 129//129 132//132 131//131
f 131//131 132//132 134//134
f 131//131 134//134 133//133
f 133//133 134//134 136//136
f 133//133 136//136 135//135
f 135//135 136//136 138//138
f 135//135 138//138 137//137
f 137//137 138//138 140//140
f 137//137 140//140 139//139
f 139//139 140//140 142//142
f 139//139 142//142 141//141
f 141//141 142//142 144//144
f 141//141 144//144 143//143
f 143//143 144//144 146//146
f 143//143 146//146 145//145
f 145//145 146//146 148//148
f 145//145 148//148 147//147
f 147//147 148//148 150//150
f 147//147 150//150 149//149
f 149//149 150//150 152//152
f 149//149 152//152 151//151
f 151//151 152//152 154//154
f 151//151 154//154 153//153
f 153//153 154//154 156//156
f 153//153 156//156 155//155
f 155//155 156//156 158//158
f 155//155 158//158 157//157
f 157//157 158//158 160//160
f 157//157 160//160 159//159
f 159//159 160//160 162//162
f 159//159 162//162 161//161
f 161//161 162//162 164//164
f 161//161 164//164 163//163
f 163//163 164//164 166//166
f 163//163 166//166 165//165
f 165//165 166//166 168//168
f 165//165 168//168 167//167
f 167//167 168//168 170//170
f 167//167 170//170 169//169
f 169//169 170//170 172//172
f 169//169 172//172 171//171
f 171//171 172//172 174//174
f 171//171 174//174 173//173
f 173//173 174//174 176//176
f 173//173 176//176 175//175
f 175//175 176//176 178//178
f 175//175 178//178 177//177
f 177//177 178//178 180//180
f 177//177 180//180 179//179
f 179//179 180//180 182//182
f 179//179 182//182 181//181
f 181//181 182//182 184//184
f 181//181 184//184 183//183
f 183//183 184//184 186//186
f 183//183 186//186 185//185
f 185//185 186//186 188//188
f 185//185 188//188 187//187
f 187//187 188//188 190//190
f 187//187 190//190 189//189
f 189//189 190//190 192//192
f 189//189 192//192 191//191
f 191//191 192//192 130//130
f 191//191 130//130 129//129
f 193//193 195//195 196//196
f 193//193 196//196 194//194
f 195//195 197//197 198//198
f 195//195 198//198 196//196
f 197//197 199//199 200//200
f 197//197 200//200 198//198
f 199//199 201//201 202//202
f 199//199 202//202 200//200
f 201//201 203//203 204//204
f 201//201 204//204 202//202
f 203//203 205//205 206//206
f 203//203 206//206 204//204
f 205//205 207//207 208//208
f 205//205 208//208 206//206
f 207//207 209//209 210//210
f 207//207 210//210 208//208
f 209//209 211//211 212//212
f 209//209 212//212 210//210
f 211//211 213//213 214//214
f 211//211 214//214 212//212
f 213//213 215//215 216//216
f 213//213 216//216 214//214
f 215//215 217//217 218//218
f 215//215 218//218 216//216
f 217//217 219//219 220//220
f 217//217 220//220 218//218
f 219//219 221//221 222//222
f 219//219 222//222 220//220
f 221//221 223//223 224//224
f 221//221 224//224 222//222
f 223//223 225//225 226//226
f 223//223 226//226 224//224
f 225//225 227//227 228//228
f 225//225 228//228 226//226
f 227//227 229//229 230//230
f 227//227 230//230 228//228
f 229//229 231//231 232//232
f 229//229 232//232 230//230
f 231//231 233//233 234//234
f 231//231 234//234 232//232
f 233//233 235//235 236//236
f 233//233 236//236 234//234
f 235//235 237//237 238//238
f 235//235 238//238 236//236
f 237//237 239//239 240//240
f 237//237 240//240 238//238
f 239//239 241//241 242//242
f 239//239 242//242 240//240
f 241//241 243//243 244//244
f 241//241 244//244 242//242
f 243//243 245//245 246//246
f 243//243 246//246 244//244
f 245//245 247//247 248//248
f 245//245 248//248 246//246
f 247//247 249//249 250//250
f 247//247 250//250 248//248
f 249//249 251//251 252//252
f 249//249 252//252 250//250
f 251//251 253//253 254//254
f 251//251 254//254 252//252
f 253//253 255//255 256//256
f 253//253 256//256 254//254
f 255//255 193//193 194//194
f 255//255 194//194 256//256
